<?xml version="1.0" encoding="UTF-8" standalone="no"?>
<!DOCTYPE svg PUBLIC "-//W3C//DTD SVG 1.1//EN" "http://www.w3.org/Graphics/SVG/1.1/DTD/svg11.dtd">
<svg width="100%" height="100%" viewBox="0 0 134 167" version="1.1" xmlns="http://www.w3.org/2000/svg" xmlns:xlink="http://www.w3.org/1999/xlink" xml:space="preserve" xmlns:serif="http://www.serif.com/" style="fill-rule:evenodd;clip-rule:evenodd;stroke-linejoin:round;stroke-miterlimit:2;">
    <g transform="matrix(1.33333,0,0,1.33333,0,0)">
        <g transform="matrix(1,0,0,1,0.0367796,12.5118)">
            <g>
                <g>
                    <path d="M70.4,17.5L56.3,3.3C56.1,3.1 55.9,3 55.7,2.9L55.7,18L70.9,18C70.7,17.8 70.6,17.6 70.4,17.5Z" style="fill-rule:nonzero;"/>
                    <path d="M67.1,56.3C68.5,56.3 69.9,56.4 71.2,56.7L71.2,23.3L53,23.3C51.5,23.3 50.3,22.1 50.3,20.6L50.3,2.5L14.3,2.5C12.8,2.5 11.6,3.7 11.6,5.2L11.6,76.4C11.6,77.9 12.8,79.1 14.3,79.1L47.3,79.1C47.2,78.2 47.1,77.3 47.1,76.3C47.1,65.3 56.1,56.3 67.1,56.3ZM26.4,18L39.4,18C40.9,18 42.1,19.2 42.1,20.7C42.1,22.2 40.9,23.4 39.4,23.4L26.4,23.4C24.9,23.4 23.7,22.2 23.7,20.7C23.8,19.2 25,18 26.4,18ZM26.4,32.2L56.4,32.2C57.9,32.2 59.1,33.4 59.1,34.9C59.1,36.4 57.9,37.6 56.4,37.6L26.4,37.6C24.9,37.6 23.7,36.4 23.7,34.9C23.8,33.4 25,32.2 26.4,32.2ZM26.4,46.4L56.4,46.4C57.9,46.4 59.1,47.6 59.1,49.1C59.1,50.6 57.9,51.8 56.4,51.8L26.4,51.8C24.9,51.8 23.7,50.6 23.7,49.1C23.8,47.6 25,46.4 26.4,46.4ZM40.5,65.9L26.4,65.9C24.9,65.9 23.7,64.7 23.7,63.2C23.7,61.7 24.9,60.5 26.4,60.5L40.5,60.5C42,60.5 43.2,61.7 43.2,63.2C43.2,64.7 42,65.9 40.5,65.9Z" style="fill-rule:nonzero;"/>
                    <path d="M87.3,91.7L79.4,84.4C81,82.1 81.9,79.3 81.9,76.3C81.9,68.2 75.3,61.6 67.2,61.6C59.1,61.6 52.5,68.2 52.5,76.3C52.5,84.4 59,91 67.1,91C70.1,91 72.9,90.1 75.2,88.5L82.5,96.4C82.6,96.5 82.6,96.5 82.7,96.6C84.1,97.8 86.2,97.8 87.4,96.4C88.7,95.1 88.6,93 87.3,91.7Z" style="fill-rule:nonzero;"/>
                </g>
            </g>
        </g>
    </g>
</svg>
