<?xml version="1.0" encoding="UTF-8" standalone="no"?>
<!DOCTYPE svg PUBLIC "-//W3C//DTD SVG 1.1//EN" "http://www.w3.org/Graphics/SVG/1.1/DTD/svg11.dtd">
<svg width="100%" height="100%" viewBox="0 0 134 167" version="1.1" xmlns="http://www.w3.org/2000/svg" xmlns:xlink="http://www.w3.org/1999/xlink" xml:space="preserve" xmlns:serif="http://www.serif.com/" style="fill-rule:evenodd;clip-rule:evenodd;stroke-linejoin:round;stroke-miterlimit:2;">
    <g transform="matrix(1.33333,0,0,1.33333,0,0)">
        <g>
            <g transform="matrix(1,0,0,1,-0.512056,14.5021)">
                <path d="M77.6,80.4C77.6,80.4 97.6,40.8 60.8,23.3L60.6,23.3L60.6,23.4L59.9,23.4C62.4,28.7 64.6,31.5 68.8,38.3C69.2,39 65.9,39 65.6,38.3C64.1,35.3 60.9,28.8 59.3,25.3C61,29.2 64.2,36.9 65.8,41.1C65.9,41.3 65.4,41.5 64.8,41.5C64.3,41.5 63.8,41.5 63.5,41.4C63.3,41.3 63.1,41.3 63.1,41.2C63,40.9 62.8,40.6 62.7,40.3C62.4,39.5 62,38.6 61.6,37.5C59.6,32.3 57.2,24.7 56.7,23.2C53.6,23.1 49,23.1 44.5,23.1C44.4,23.1 44.4,23 44.3,22.9C43.8,23 43.4,23 43.2,23.1C5.9,43.2 22.1,79.6 22.1,79.6C22.1,79.6 18.4,80.8 18,85.6C17.9,86.7 23.9,85.5 26.7,85.5C26.7,85.5 30.9,84.4 32.7,83.9C35.1,83.1 29.2,85.9 29.1,85.9C38.6,87.6 57.9,87.4 71.6,85.8C71.6,85.8 65.4,82.9 67.9,83.7C69.7,84.3 74.2,85.5 74.2,85.5L74.1,85.5C75.8,85.5 80.4,87.7 80.4,87.7C83,85 77.6,80.4 77.6,80.4Z" style="fill-rule:nonzero;"/>
                <path d="M44.5,20.9C48.8,19.9 52,19.9 59.9,20.9C63.4,19.6 66,14.4 67.1,12.1C67.7,10.8 65,10 61.9,9.9C60.7,11.6 57.5,18.3 58.1,16.6C59.3,13.3 61,9.9 61,9.9C60.8,9.7 61.1,8.4 60.8,8.4C53,8.7 44.9,6.9 37.2,11.5C36.4,12 41.2,19.3 44.5,20.9Z" style="fill-rule:nonzero;"/>
            </g>
            <path d="M71.9,85.7L71.8,85.7L71.9,85.7Z" style="fill-rule:nonzero;"/>
        </g>
    </g>
</svg>
